<svg xmlns="http://www.w3.org/2000/svg" viewBox="0 0 755 200" width="755" height="200" role="img" aria-label="OptionsPush">
  <title>OptionsPush</title>
  <defs><mask id="cutn"><rect width="755" height="200" fill="#fff"/>
    <path d="M80.4 89.9 L80.4 13.7" stroke="#000" stroke-width="23.0" stroke-linecap="round" fill="none"/>
  </mask></defs>
  <g mask="url(#cutn)">
    <path fill="#ffffff" transform="translate(24.00 128.00) scale(0.10800 -0.10800)" d="M33 353Q33 456 81.5 538.0Q130 620 212.5 666.0Q295 712 394 712Q493 712 575.5 666.0Q658 620 705.5 538.0Q753 456 753 353Q753 250 705.0 167.5Q657 85 575.0 39.0Q493 -7 394 -7Q295 -7 212.5 39.0Q130 85 81.5 167.5Q33 250 33 353ZM579 353Q579 446 528.5 501.5Q478 557 394 557Q309 557 258.5 502.0Q208 447 208 353Q208 260 258.5 204.5Q309 149 394 149Q478 149 528.5 205.0Q579 261 579 353Z"/>
    <path fill="#ffffff" transform="translate(108.89 128.00) scale(0.10800 -0.10800)" d="M405 566Q474 566 530.0 531.0Q586 496 618.5 431.0Q651 366 651 280Q651 194 618.5 128.5Q586 63 530.0 27.5Q474 -8 405 -8Q347 -8 302.5 16.0Q258 40 233 78V-266H62V558H233V479Q258 518 302.0 542.0Q346 566 405 566ZM354 417Q303 417 267.5 380.0Q232 343 232 279Q232 215 267.5 178.0Q303 141 354 141Q405 141 441.0 178.5Q477 216 477 280Q477 344 441.5 380.5Q406 417 354 417Z"/>
    <path fill="#ffffff" transform="translate(182.22 128.00) scale(0.10800 -0.10800)" d="M373 145V0H286Q193 0 141.0 45.5Q89 91 89 194V416H21V558H89V694H260V558H372V416H260V192Q260 167 272.0 156.0Q284 145 312 145Z"/>
    <path fill="#ffffff" transform="translate(226.07 128.00) scale(0.10800 -0.10800)" d="M46 708Q46 748 74.5 774.5Q103 801 148 801Q192 801 220.5 774.5Q249 748 249 708Q249 669 220.5 642.5Q192 616 148 616Q103 616 74.5 642.5Q46 669 46 708ZM233 558V0H62V558Z"/>
    <path fill="#ffffff" transform="translate(257.93 128.00) scale(0.10800 -0.10800)" d="M28 279Q28 365 66.0 430.5Q104 496 170.0 531.0Q236 566 318 566Q400 566 466.0 531.0Q532 496 570.0 430.5Q608 365 608 279Q608 193 569.5 127.5Q531 62 464.5 27.0Q398 -8 316 -8Q234 -8 168.5 27.0Q103 62 65.5 127.0Q28 192 28 279ZM434 279Q434 346 400.5 382.0Q367 418 318 418Q268 418 235.0 382.5Q202 347 202 279Q202 212 234.5 176.0Q267 140 316 140Q365 140 399.5 176.0Q434 212 434 279Z"/>
    <path fill="#ffffff" transform="translate(326.72 128.00) scale(0.10800 -0.10800)" d="M617 326V0H447V303Q447 359 418.0 390.0Q389 421 340 421Q291 421 262.0 390.0Q233 359 233 303V0H62V558H233V484Q259 521 303.0 542.5Q347 564 402 564Q500 564 558.5 500.5Q617 437 617 326Z"/>
    <path fill="#ffffff" transform="translate(399.52 128.00) scale(0.10800 -0.10800)" d="M32 183H201Q204 154 228.0 136.0Q252 118 287 118Q319 118 336.5 130.5Q354 143 354 163Q354 187 329.0 198.5Q304 210 248 224Q188 238 148.0 253.5Q108 269 79.0 302.5Q50 336 50 393Q50 441 76.5 480.5Q103 520 154.5 543.0Q206 566 277 566Q382 566 442.5 514.0Q503 462 512 376H354Q350 405 328.5 422.0Q307 439 272 439Q242 439 226.0 427.5Q210 416 210 396Q210 372 235.5 360.0Q261 348 315 336Q377 320 416.0 304.5Q455 289 484.5 254.5Q514 220 515 162Q515 113 487.5 74.5Q460 36 408.5 14.0Q357 -8 289 -8Q216 -8 159.0 17.0Q102 42 69.0 85.5Q36 129 32 183Z"/>
  </g>
  <g>
    <path fill="#83bc44" transform="translate(459.78 128.00) scale(0.10800 -0.10800)" d="M339 252H233V0H62V702H339Q423 702 481.0 673.0Q539 644 568.0 593.0Q597 542 597 476Q597 415 569.0 364.5Q541 314 483.0 283.0Q425 252 339 252ZM423 476Q423 518 399.0 541.0Q375 564 326 564H233V388H326Q375 388 399.0 411.0Q423 434 423 476Z"/>
    <path fill="#83bc44" transform="translate(527.17 128.00) scale(0.10800 -0.10800)" d="M613 558V0H442V76Q416 39 371.5 16.5Q327 -6 273 -6Q209 -6 160.0 22.5Q111 51 84.0 105.0Q57 159 57 232V558H227V255Q227 199 256.0 168.0Q285 137 334 137Q384 137 413.0 168.0Q442 199 442 255V558Z"/>
    <path fill="#83bc44" transform="translate(599.96 128.00) scale(0.10800 -0.10800)" d="M32 183H201Q204 154 228.0 136.0Q252 118 287 118Q319 118 336.5 130.5Q354 143 354 163Q354 187 329.0 198.5Q304 210 248 224Q188 238 148.0 253.5Q108 269 79.0 302.5Q50 336 50 393Q50 441 76.5 480.5Q103 520 154.5 543.0Q206 566 277 566Q382 566 442.5 514.0Q503 462 512 376H354Q350 405 328.5 422.0Q307 439 272 439Q242 439 226.0 427.5Q210 416 210 396Q210 372 235.5 360.0Q261 348 315 336Q377 320 416.0 304.5Q455 289 484.5 254.5Q514 220 515 162Q515 113 487.5 74.5Q460 36 408.5 14.0Q357 -8 289 -8Q216 -8 159.0 17.0Q102 42 69.0 85.5Q36 129 32 183Z"/>
    <path fill="#83bc44" transform="translate(660.23 128.00) scale(0.10800 -0.10800)" d="M617 326V0H447V303Q447 359 418.0 390.0Q389 421 340 421Q291 421 262.0 390.0Q233 359 233 303V0H62V740H233V483Q259 520 304.0 542.0Q349 564 405 564Q501 564 559.0 500.5Q617 437 617 326Z"/>
  </g>
  <g stroke-linecap="round" stroke-linejoin="round" fill="none">
    <path d="M49.4 111.4 L49.4 96.4" stroke="#ffffff" stroke-width="11.5"/>
    <path d="M64.9 111.4 L64.9 84.4" stroke="#8fc0f2" stroke-width="11.5"/>
    <path d="M80.4 111.4 L80.4 25.2" stroke="#83bc44" stroke-width="11.5"/>
    <path d="M67.2 38.4 L80.4 25.2 L93.7 38.4" stroke="#83bc44" stroke-width="11.5"/>
  </g>
  <g>
    <path fill="#83bc44" transform="translate(364.40 172.00) scale(0.02600 -0.02600)" d="M326 268H209V0H69V698H326Q407 698 464.0 670.0Q521 642 549.5 593.0Q578 544 578 482Q578 426 551.5 377.0Q525 328 468.5 298.0Q412 268 326 268ZM434 482Q434 584 320 584H209V381H320Q378 381 406.0 407.5Q434 434 434 482Z"/>
    <path fill="#83bc44" transform="translate(383.41 172.00) scale(0.02600 -0.02600)" d="M429 0 275 272H209V0H69V698H331Q412 698 469.0 669.5Q526 641 554.5 592.5Q583 544 583 484Q583 415 543.0 359.5Q503 304 424 283L591 0ZM209 377H326Q383 377 411.0 404.5Q439 432 439 481Q439 529 411.0 555.5Q383 582 326 582H209Z"/>
    <path fill="#83bc44" transform="translate(403.27 172.00) scale(0.02600 -0.02600)" d="M209 698V0H69V698Z"/>
    <path fill="#83bc44" transform="translate(413.70 172.00) scale(0.02600 -0.02600)" d="M389 707Q506 707 594.0 647.0Q682 587 717 481H556Q532 531 488.5 556.0Q445 581 388 581Q327 581 279.5 552.5Q232 524 205.5 472.0Q179 420 179 350Q179 281 205.5 228.5Q232 176 279.5 147.5Q327 119 388 119Q445 119 488.5 144.5Q532 170 556 220H717Q682 113 594.5 53.5Q507 -6 389 -6Q289 -6 208.5 39.5Q128 85 81.5 166.0Q35 247 35 350Q35 453 81.5 534.5Q128 616 208.5 661.5Q289 707 389 707Z"/>
    <path fill="#83bc44" transform="translate(436.87 172.00) scale(0.02600 -0.02600)" d="M209 585V410H444V299H209V114H474V0H69V699H474V585Z"/>
    <path fill="#83bc44" transform="translate(453.90 172.00) scale(0.02600 -0.02600)" d="M44 75Q44 110 68.5 133.5Q93 157 131 157Q168 157 192.0 133.5Q216 110 216 75Q216 40 192.0 16.5Q168 -7 131 -7Q93 -7 68.5 16.5Q44 40 44 75Z"/>
    <path fill="#4585de" transform="translate(473.25 172.00) scale(0.02600 -0.02600)" d="M326 268H209V0H69V698H326Q407 698 464.0 670.0Q521 642 549.5 593.0Q578 544 578 482Q578 426 551.5 377.0Q525 328 468.5 298.0Q412 268 326 268ZM434 482Q434 584 320 584H209V381H320Q378 381 406.0 407.5Q434 434 434 482Z"/>
    <path fill="#4585de" transform="translate(492.26 172.00) scale(0.02600 -0.02600)" d="M429 0 275 272H209V0H69V698H331Q412 698 469.0 669.5Q526 641 554.5 592.5Q583 544 583 484Q583 415 543.0 359.5Q503 304 424 283L591 0ZM209 377H326Q383 377 411.0 404.5Q439 432 439 481Q439 529 411.0 555.5Q383 582 326 582H209Z"/>
    <path fill="#4585de" transform="translate(512.12 172.00) scale(0.02600 -0.02600)" d="M209 585V410H444V299H209V114H474V0H69V699H474V585Z"/>
    <path fill="#4585de" transform="translate(529.16 172.00) scale(0.02600 -0.02600)" d="M51 201H201Q204 158 231.5 133.0Q259 108 307 108Q356 108 384.0 131.5Q412 155 412 193Q412 224 393.0 244.0Q374 264 345.5 275.5Q317 287 267 301Q199 321 156.5 340.5Q114 360 83.5 399.5Q53 439 53 505Q53 567 84.0 613.0Q115 659 171.0 683.5Q227 708 299 708Q407 708 474.5 655.5Q542 603 549 509H395Q393 545 364.5 568.5Q336 592 289 592Q248 592 223.5 571.0Q199 550 199 510Q199 482 217.5 463.5Q236 445 263.5 433.5Q291 422 341 407Q409 387 452.0 367.0Q495 347 526.0 307.0Q557 267 557 202Q557 146 528.0 98.0Q499 50 443.0 21.5Q387 -7 310 -7Q237 -7 178.5 18.0Q120 43 86.0 90.0Q52 137 51 201Z"/>
    <path fill="#4585de" transform="translate(548.19 172.00) scale(0.02600 -0.02600)" d="M209 585V410H444V299H209V114H474V0H69V699H474V585Z"/>
    <path fill="#4585de" transform="translate(565.22 172.00) scale(0.02600 -0.02600)" d="M666 0H526L209 479V0H69V699H209L526 219V699H666Z"/>
    <path fill="#4585de" transform="translate(587.53 172.00) scale(0.02600 -0.02600)" d="M544 698V585H358V0H218V585H32V698Z"/>
    <path fill="#4585de" transform="translate(605.73 172.00) scale(0.02600 -0.02600)" d="M44 75Q44 110 68.5 133.5Q93 157 131 157Q168 157 192.0 133.5Q216 110 216 75Q216 40 192.0 16.5Q168 -7 131 -7Q93 -7 68.5 16.5Q44 40 44 75Z"/>
    <path fill="#ffffff" transform="translate(625.08 172.00) scale(0.02600 -0.02600)" d="M389 707Q506 707 594.0 647.0Q682 587 717 481H556Q532 531 488.5 556.0Q445 581 388 581Q327 581 279.5 552.5Q232 524 205.5 472.0Q179 420 179 350Q179 281 205.5 228.5Q232 176 279.5 147.5Q327 119 388 119Q445 119 488.5 144.5Q532 170 556 220H717Q682 113 594.5 53.5Q507 -6 389 -6Q289 -6 208.5 39.5Q128 85 81.5 166.0Q35 247 35 350Q35 453 81.5 534.5Q128 616 208.5 661.5Q289 707 389 707Z"/>
    <path fill="#ffffff" transform="translate(648.25 172.00) scale(0.02600 -0.02600)" d="M209 111H439V0H69V698H209Z"/>
    <path fill="#ffffff" transform="translate(663.38 172.00) scale(0.02600 -0.02600)" d="M35 351Q35 453 83.0 534.5Q131 616 213.0 662.0Q295 708 393 708Q492 708 573.5 662.0Q655 616 702.5 534.5Q750 453 750 351Q750 248 702.5 166.5Q655 85 573.0 39.0Q491 -7 393 -7Q295 -7 213.0 39.0Q131 85 83.0 166.5Q35 248 35 351ZM606 351Q606 421 579.0 473.5Q552 526 504.0 554.0Q456 582 393 582Q330 582 281.5 554.0Q233 526 206.0 473.5Q179 421 179 351Q179 281 206.0 228.0Q233 175 281.5 146.5Q330 118 393 118Q456 118 504.0 146.5Q552 175 579.0 228.0Q606 281 606 351Z"/>
    <path fill="#ffffff" transform="translate(686.99 172.00) scale(0.02600 -0.02600)" d="M51 201H201Q204 158 231.5 133.0Q259 108 307 108Q356 108 384.0 131.5Q412 155 412 193Q412 224 393.0 244.0Q374 264 345.5 275.5Q317 287 267 301Q199 321 156.5 340.5Q114 360 83.5 399.5Q53 439 53 505Q53 567 84.0 613.0Q115 659 171.0 683.5Q227 708 299 708Q407 708 474.5 655.5Q542 603 549 509H395Q393 545 364.5 568.5Q336 592 289 592Q248 592 223.5 571.0Q199 550 199 510Q199 482 217.5 463.5Q236 445 263.5 433.5Q291 422 341 407Q409 387 452.0 367.0Q495 347 526.0 307.0Q557 267 557 202Q557 146 528.0 98.0Q499 50 443.0 21.5Q387 -7 310 -7Q237 -7 178.5 18.0Q120 43 86.0 90.0Q52 137 51 201Z"/>
    <path fill="#ffffff" transform="translate(706.03 172.00) scale(0.02600 -0.02600)" d="M209 585V410H444V299H209V114H474V0H69V699H474V585Z"/>
    <path fill="#ffffff" transform="translate(723.06 172.00) scale(0.02600 -0.02600)" d="M44 75Q44 110 68.5 133.5Q93 157 131 157Q168 157 192.0 133.5Q216 110 216 75Q216 40 192.0 16.5Q168 -7 131 -7Q93 -7 68.5 16.5Q44 40 44 75Z"/>
  </g>
</svg>